<svg xmlns="http://www.w3.org/2000/svg" viewBox="0 0 640 640" role="img"><defs>
    <linearGradient id="bg" x1="0" y1="0" x2="0" y2="1"><stop offset="0" stop-color="#64e5f5"/><stop offset=".38" stop-color="#168ec5"/><stop offset="1" stop-color="#04335f"/></linearGradient>
    <radialGradient id="glow" cx="50%" cy="17%" r="72%"><stop offset="0" stop-color="#f2ffff" stop-opacity=".92"/><stop offset=".32" stop-color="#ef8df3" stop-opacity=".28"/><stop offset="1" stop-color="#03244b" stop-opacity="0"/></radialGradient>
    <linearGradient id="glass" x1="0" y1="0" x2="1" y2="1"><stop offset="0" stop-color="#ffffff" stop-opacity=".8"/><stop offset=".48" stop-color="#a7efff" stop-opacity=".12"/><stop offset="1" stop-color="#45c4e7" stop-opacity=".28"/></linearGradient>
    <linearGradient id="sand" x1="0" y1="0" x2="0" y2="1"><stop offset="0" stop-color="#f3df9c"/><stop offset="1" stop-color="#9e7442"/></linearGradient>
    <linearGradient id="gold" x1="0" y1="0" x2="1" y2="1"><stop offset="0" stop-color="#fff4a8"/><stop offset=".45" stop-color="#ffc640"/><stop offset="1" stop-color="#9b5807"/></linearGradient>
    <linearGradient id="ice" x1="0" y1="0" x2="0" y2="1"><stop offset="0" stop-color="#ecffff"/><stop offset="1" stop-color="#8eddf5"/></linearGradient>
    <filter id="shadow"><feDropShadow dx="0" dy="8" stdDeviation="7" flood-color="#001b33" flood-opacity=".38"/></filter>
    </defs>
    <rect x="0" y="0" width="640" height="640" fill="url(#bg)" rx="44"/>
    <rect x="0" y="0" width="640" height="640" fill="url(#glow)" rx="44"/>
    <circle cx="72" cy="95" r="11" fill="none" stroke="#dbfbff" stroke-width="2" opacity="0.65"/><circle cx="135" cy="160" r="6" fill="none" stroke="#dbfbff" stroke-width="2" opacity="0.65"/><circle cx="550" cy="92" r="8" fill="none" stroke="#dbfbff" stroke-width="2" opacity="0.65"/><circle cx="580" cy="175" r="14" fill="none" stroke="#dbfbff" stroke-width="2" opacity="0.65"/><circle cx="89" cy="290" r="7" fill="none" stroke="#dbfbff" stroke-width="2" opacity="0.65"/><circle cx="557" cy="335" r="10" fill="none" stroke="#dbfbff" stroke-width="2" opacity="0.65"/><circle cx="510" cy="235" r="5" fill="none" stroke="#dbfbff" stroke-width="2" opacity="0.65"/><circle cx="175" cy="75" r="5" fill="none" stroke="#dbfbff" stroke-width="2" opacity="0.65"/><circle cx="425" cy="110" r="6" fill="none" stroke="#dbfbff" stroke-width="2" opacity="0.65"/><circle cx="105" cy="410" r="8" fill="none" stroke="#dbfbff" stroke-width="2" opacity="0.65"/><circle cx="530" cy="425" r="6" fill="none" stroke="#dbfbff" stroke-width="2" opacity="0.65"/>
    <ellipse cx="320" cy="550" rx="275" ry="76" fill="#00192f" opacity="0.3"/>
    <path d="M30 548 Q155 500 265 535 Q390 570 610 520 L630 640 L10 640 Z" fill="url(#sand)" stroke="#6f542d" stroke-width="6" stroke-linejoin="round" stroke-linecap="round"/>
    <path d="M68 548 C54 510 58 476 74 438 C80 474 95 500 89 548" fill="#f477a9" stroke="#7d2e70" stroke-width="5" stroke-linejoin="round" stroke-linecap="round"/><path d="M87 527 C112 492 106 463 98 442 C124 468 126 502 111 543" fill="#ff9c63" stroke="#8f493f" stroke-width="5" stroke-linejoin="round" stroke-linecap="round"/><path d="M571 548 C548 510 552 475 569 438 C575 472 590 500 583 548" fill="#ae79ea" stroke="#5c3b8c" stroke-width="5" stroke-linejoin="round" stroke-linecap="round"/><path d="M548 531 C526 495 530 464 540 443 C515 469 511 505 527 545" fill="#67d9ce" stroke="#2e7a78" stroke-width="5" stroke-linejoin="round" stroke-linecap="round"/>
    <circle cx="320" cy="315" r="246" fill="url(#glass)" stroke="#c3f8ff" stroke-width="5" opacity="0.25"/>
    <path d="M143 187 Q320 83 497 187" fill="none" stroke="#ffffff" stroke-width="5" stroke-linejoin="round" stroke-linecap="round" opacity="0.22"/>
    <ellipse cx="320" cy="500" rx="220" ry="48" fill="#7952a4" stroke="#0e4860" stroke-width="8"/>
    <ellipse cx="320" cy="494" rx="190" ry="35" fill="#7fe2e7" stroke="#dffcff" stroke-width="4" opacity="0.72"/>
    <g filter="url(#shadow)"><rect x="145" y="440" width="350" height="24" fill="#d7b76a" rx="10" stroke="#72542e" stroke-width="5"/><rect x="165" y="458" width="25" height="55" fill="#6b4f33" rx="7"/><rect x="450" y="458" width="25" height="55" fill="#6b4f33" rx="7"/><circle cx="320" cy="245" r="23" fill="#f2bd86" stroke="#173c57" stroke-width="4"/><path d="M299 241 Q320 208 341 241 Q337 223 320 227 Q303 223 299 241 Z" fill="#50321f" stroke="#173c57" stroke-width="3" stroke-linejoin="round" stroke-linecap="round"/><circle cx="312" cy="247" r="2.5" fill="#1a2837"/><circle cx="328" cy="247" r="2.5" fill="#1a2837"/><path d="M313 257 Q320 262 327 257" fill="none" stroke="#9a4f42" stroke-width="2" stroke-linejoin="round" stroke-linecap="round"/><path d="M296.0 293.0 Q320 275.0 344.0 293.0 L339.0 359.0 L301.0 359.0 Z" fill="#b34fd0" stroke="#173c57" stroke-width="5" stroke-linejoin="round" stroke-linecap="round"/><line x1="300" y1="300" x2="240" y2="250" stroke="#f2bd86" stroke-width="13" stroke-linecap="round"/><line x1="340" y1="300" x2="400" y2="250" stroke="#f2bd86" stroke-width="13" stroke-linecap="round"/><line x1="308" y1="358" x2="235" y2="420" stroke="#b97852" stroke-width="16" stroke-linecap="round"/><line x1="332" y1="358" x2="405" y2="420" stroke="#b97852" stroke-width="16" stroke-linecap="round"/><ellipse cx="230" cy="425" rx="18" ry="8" fill="#f5e9ff" stroke="#173c57" stroke-width="3" transform="rotate(-15 230 425)"/><ellipse cx="410" cy="425" rx="18" ry="8" fill="#f5e9ff" stroke="#173c57" stroke-width="3" transform="rotate(15 410 425)"/><polygon points="305,345 335,345 350,390 290,390" fill="#b34fd0" stroke="#173c57" stroke-width="4" stroke-linejoin="round"/></g></svg>