<svg xmlns="http://www.w3.org/2000/svg" viewBox="0 0 640 640" role="img"><defs>
    <linearGradient id="bg" x1="0" y1="0" x2="0" y2="1"><stop offset="0" stop-color="#64e5f5"/><stop offset=".38" stop-color="#168ec5"/><stop offset="1" stop-color="#04335f"/></linearGradient>
    <radialGradient id="glow" cx="50%" cy="17%" r="72%"><stop offset="0" stop-color="#f2ffff" stop-opacity=".92"/><stop offset=".32" stop-color="#d8a26b" stop-opacity=".28"/><stop offset="1" stop-color="#03244b" stop-opacity="0"/></radialGradient>
    <linearGradient id="glass" x1="0" y1="0" x2="1" y2="1"><stop offset="0" stop-color="#ffffff" stop-opacity=".8"/><stop offset=".48" stop-color="#a7efff" stop-opacity=".12"/><stop offset="1" stop-color="#45c4e7" stop-opacity=".28"/></linearGradient>
    <linearGradient id="sand" x1="0" y1="0" x2="0" y2="1"><stop offset="0" stop-color="#f3df9c"/><stop offset="1" stop-color="#9e7442"/></linearGradient>
    <linearGradient id="gold" x1="0" y1="0" x2="1" y2="1"><stop offset="0" stop-color="#fff4a8"/><stop offset=".45" stop-color="#ffc640"/><stop offset="1" stop-color="#9b5807"/></linearGradient>
    <linearGradient id="ice" x1="0" y1="0" x2="0" y2="1"><stop offset="0" stop-color="#ecffff"/><stop offset="1" stop-color="#8eddf5"/></linearGradient>
    <filter id="shadow"><feDropShadow dx="0" dy="8" stdDeviation="7" flood-color="#001b33" flood-opacity=".38"/></filter>
    </defs>
    <rect x="0" y="0" width="640" height="640" fill="url(#bg)" rx="44"/>
    <rect x="0" y="0" width="640" height="640" fill="url(#glow)" rx="44"/>
    <circle cx="72" cy="95" r="11" fill="none" stroke="#dbfbff" stroke-width="2" opacity="0.65"/><circle cx="135" cy="160" r="6" fill="none" stroke="#dbfbff" stroke-width="2" opacity="0.65"/><circle cx="550" cy="92" r="8" fill="none" stroke="#dbfbff" stroke-width="2" opacity="0.65"/><circle cx="580" cy="175" r="14" fill="none" stroke="#dbfbff" stroke-width="2" opacity="0.65"/><circle cx="89" cy="290" r="7" fill="none" stroke="#dbfbff" stroke-width="2" opacity="0.65"/><circle cx="557" cy="335" r="10" fill="none" stroke="#dbfbff" stroke-width="2" opacity="0.65"/><circle cx="510" cy="235" r="5" fill="none" stroke="#dbfbff" stroke-width="2" opacity="0.65"/><circle cx="175" cy="75" r="5" fill="none" stroke="#dbfbff" stroke-width="2" opacity="0.65"/><circle cx="425" cy="110" r="6" fill="none" stroke="#dbfbff" stroke-width="2" opacity="0.65"/><circle cx="105" cy="410" r="8" fill="none" stroke="#dbfbff" stroke-width="2" opacity="0.65"/><circle cx="530" cy="425" r="6" fill="none" stroke="#dbfbff" stroke-width="2" opacity="0.65"/>
    <ellipse cx="320" cy="550" rx="275" ry="76" fill="#00192f" opacity="0.3"/>
    <path d="M30 548 Q155 500 265 535 Q390 570 610 520 L630 640 L10 640 Z" fill="url(#sand)" stroke="#6f542d" stroke-width="6" stroke-linejoin="round" stroke-linecap="round"/>
    <path d="M68 548 C54 510 58 476 74 438 C80 474 95 500 89 548" fill="#f477a9" stroke="#7d2e70" stroke-width="5" stroke-linejoin="round" stroke-linecap="round"/><path d="M87 527 C112 492 106 463 98 442 C124 468 126 502 111 543" fill="#ff9c63" stroke="#8f493f" stroke-width="5" stroke-linejoin="round" stroke-linecap="round"/><path d="M571 548 C548 510 552 475 569 438 C575 472 590 500 583 548" fill="#ae79ea" stroke="#5c3b8c" stroke-width="5" stroke-linejoin="round" stroke-linecap="round"/><path d="M548 531 C526 495 530 464 540 443 C515 469 511 505 527 545" fill="#67d9ce" stroke="#2e7a78" stroke-width="5" stroke-linejoin="round" stroke-linecap="round"/>
    <circle cx="320" cy="315" r="246" fill="url(#glass)" stroke="#c3f8ff" stroke-width="5" opacity="0.25"/>
    <path d="M143 187 Q320 83 497 187" fill="none" stroke="#ffffff" stroke-width="5" stroke-linejoin="round" stroke-linecap="round" opacity="0.22"/>
    <ellipse cx="320" cy="500" rx="220" ry="48" fill="#8e5b42" stroke="#0e4860" stroke-width="8"/>
    <ellipse cx="320" cy="494" rx="190" ry="35" fill="#7fe2e7" stroke="#dffcff" stroke-width="4" opacity="0.72"/>
    <g filter="url(#shadow)"><path d="M130 480 L510 480 L430 250 L210 250 Z" fill="#c68a55" stroke="#f4d9a6" stroke-width="6" stroke-linejoin="round" stroke-linecap="round"/><line x1="245" y1="270" x2="270" y2="470" stroke="#f7e5bf" stroke-width="3" stroke-linecap="0.6"/><line x1="320" y1="270" x2="345" y2="470" stroke="#f7e5bf" stroke-width="3" stroke-linecap="0.6"/><line x1="395" y1="270" x2="420" y2="470" stroke="#f7e5bf" stroke-width="3" stroke-linecap="0.6"/><path d="M337 350 Q326 315 340 298 Q350 282 360 298 Q374 315 363 350 Z" fill="#fff" stroke="#78909c" stroke-width="3" stroke-linejoin="round" stroke-linecap="round"/><rect x="337" y="304" width="26" height="8" fill="#ef5b65" rx="2"/><path d="M392.65 372.5 Q382.2 339.25 395.5 323.1 Q405 307.9 414.5 323.1 Q427.8 339.25 417.35 372.5 Z" fill="#fff" stroke="#78909c" stroke-width="3" stroke-linejoin="round" stroke-linecap="round"/><rect x="392.65" y="328.8" width="24.7" height="7.6" fill="#ef5b65" rx="2"/><path d="M443.3 395.0 Q433.4 363.5 446.0 348.2 Q455 333.8 464.0 348.2 Q476.6 363.5 466.7 395.0 Z" fill="#fff" stroke="#78909c" stroke-width="3" stroke-linejoin="round" stroke-linecap="round"/><rect x="443.3" y="353.6" width="23.400000000000002" height="7.2" fill="#ef5b65" rx="2"/><path d="M287.65 372.5 Q277.2 339.25 290.5 323.1 Q300 307.9 309.5 323.1 Q322.8 339.25 312.35 372.5 Z" fill="#fff" stroke="#78909c" stroke-width="3" stroke-linejoin="round" stroke-linecap="round"/><rect x="287.65" y="328.8" width="24.7" height="7.6" fill="#ef5b65" rx="2"/><path d="M238.3 395.0 Q228.4 363.5 241.0 348.2 Q250 333.8 259.0 348.2 Q271.6 363.5 261.7 395.0 Z" fill="#fff" stroke="#78909c" stroke-width="3" stroke-linejoin="round" stroke-linecap="round"/><rect x="238.3" y="353.6" width="23.400000000000002" height="7.2" fill="#ef5b65" rx="2"/><circle cx="230" cy="430" r="48" fill="#674fd0" stroke="#352979" stroke-width="6"/><circle cx="215" cy="415" r="7" fill="#1d2330"/><circle cx="235" cy="402" r="7" fill="#1d2330"/><circle cx="250" cy="420" r="7" fill="#1d2330"/></g></svg>