<svg xmlns="http://www.w3.org/2000/svg" viewBox="0 0 640 640"><defs><filter id="ds" x="-30%" y="-30%" width="160%" height="170%"><feDropShadow dx="0" dy="14" stdDeviation="12" flood-color="#000" flood-opacity=".34"/></filter></defs><g filter="url(#ds)">
<path d="M260 465 L380 465 L360 565 Q320 590 280 565 Z" fill="#07121d" stroke="#07121d" stroke-width="8"/>
<ellipse cx="320" cy="467" rx="72" ry="20" fill="#07121d"/>
<path d="M320 465 C315 360 322 270 320 190" stroke="#07121d" stroke-width="22" fill="none" stroke-linecap="round"/>
<g transform="rotate(-28 255 330)"><path d="M 170 330 Q 255 292 340 330 Q 255 368 170 330 Z" fill="#07121d" stroke="#07121d" stroke-width="5"/><path d="M 195.5 330 Q 255 330 316.2 330" stroke="#07121d" stroke-width="4" opacity="1" fill="none"/></g><g transform="rotate(26 385 290)"><path d="M 297 290 Q 385 250 473 290 Q 385 330 297 290 Z" fill="#07121d" stroke="#07121d" stroke-width="5"/><path d="M 323.4 290 Q 385 290 448.36 290" stroke="#07121d" stroke-width="4" opacity="1" fill="none"/></g><g transform="rotate(-34 260 230)"><path d="M 184 230 Q 260 195 336 230 Q 260 265 184 230 Z" fill="#07121d" stroke="#07121d" stroke-width="5"/><path d="M 206.8 230 Q 260 230 314.72 230" stroke="#07121d" stroke-width="4" opacity="1" fill="none"/></g><g transform="rotate(28 382 195)"><path d="M 308 195 Q 382 160 456 195 Q 382 230 308 195 Z" fill="#07121d" stroke="#07121d" stroke-width="5"/><path d="M 330.2 195 Q 382 195 435.28 195" stroke="#07121d" stroke-width="4" opacity="1" fill="none"/></g><g transform="rotate(0 320 145)"><path d="M 258 145 Q 320 115 382 145 Q 320 175 258 145 Z" fill="#07121d" stroke="#07121d" stroke-width="5"/><path d="M 276.6 145 Q 320 145 364.64 145" stroke="#07121d" stroke-width="4" opacity="1" fill="none"/></g></g></svg>