<svg xmlns="http://www.w3.org/2000/svg" viewBox="0 0 640 640" role="img">
    <defs>
      <radialGradient id="bg" cx="35%" cy="25%" r="80%">
        <stop offset="0" stop-color="#f7fff3"/>
        <stop offset="0.48" stop-color="#dff8e8"/>
        <stop offset="1" stop-color="#a7d9dc"/>
      </radialGradient>
      <linearGradient id="leaf" x1="0" y1="0" x2="1" y2="1">
        <stop offset="0" stop-color="#b9f66d"/>
        <stop offset="0.42" stop-color="#4fc85a"/>
        <stop offset="1" stop-color="#16713d"/>
      </linearGradient>
      <linearGradient id="leafDark" x1="0" y1="0" x2="1" y2="1">
        <stop offset="0" stop-color="#54bc50"/>
        <stop offset="1" stop-color="#0d562e"/>
      </linearGradient>
      <linearGradient id="stem" x1="0" y1="0" x2="1" y2="0">
        <stop offset="0" stop-color="#155c32"/>
        <stop offset="0.5" stop-color="#53c457"/>
        <stop offset="1" stop-color="#0c482b"/>
      </linearGradient>
      <linearGradient id="soil" x1="0" y1="0" x2="0" y2="1">
        <stop offset="0" stop-color="#8a5b2b"/>
        <stop offset="1" stop-color="#3f2416"/>
      </linearGradient>
      <linearGradient id="pot" x1="0" y1="0" x2="1" y2="1">
        <stop offset="0" stop-color="#f7a765"/>
        <stop offset="0.55" stop-color="#c85b32"/>
        <stop offset="1" stop-color="#7f2d22"/>
      </linearGradient>
      <filter id="shadow" x="-30%" y="-30%" width="160%" height="170%">
        <feDropShadow dx="0" dy="18" stdDeviation="16" flood-color="#0d2b2a" flood-opacity="0.32"/>
      </filter>
      <filter id="soft" x="-30%" y="-30%" width="160%" height="160%">
        <feGaussianBlur stdDeviation="8"/>
      </filter>
      
    </defs>
    <rect x="0" y="0" width="640" height="640" rx="44" fill="url(#bg)"/>
    <circle cx="515" cy="120" r="82" fill="#fff7a0" opacity=".25" filter="url(#soft)"/>
    <g><circle cx="90" cy="105" r="5" fill="#fff" opacity=".72"/><path d="M80 105 H100 M90 95 V115" stroke="#fff" stroke-width="2" opacity=".55"/><circle cx="535" cy="95" r="4" fill="#fff" opacity=".72"/><path d="M525 95 H545 M535 85 V105" stroke="#fff" stroke-width="2" opacity=".55"/><circle cx="555" cy="210" r="6" fill="#fff" opacity=".72"/><path d="M545 210 H565 M555 200 V220" stroke="#fff" stroke-width="2" opacity=".55"/><circle cx="110" cy="250" r="4" fill="#fff" opacity=".72"/><path d="M100 250 H120 M110 240 V260" stroke="#fff" stroke-width="2" opacity=".55"/><circle cx="475" cy="375" r="4" fill="#fff" opacity=".72"/><path d="M465 375 H485 M475 365 V385" stroke="#fff" stroke-width="2" opacity=".55"/><circle cx="155" cy="420" r="5" fill="#fff" opacity=".72"/><path d="M145 420 H165 M155 410 V430" stroke="#fff" stroke-width="2" opacity=".55"/></g>
    
        <ellipse cx="320" cy="540" rx="235" ry="62" fill="#4d3425" opacity=".18" filter="url(#soft)"/>
        <path d="M75 545 Q320 485 565 545 L565 640 L75 640 Z" fill="url(#soil)" opacity=".9"/>
        <path d="M75 545 Q320 500 565 545" fill="none" stroke="#b77b3d" stroke-width="10" opacity=".42"/>
        
    <g filter="url(#shadow)"><path d="M180 520 V145 M460 520 V145 M180 180 H460 M180 280 H460 M180 380 H460" stroke="#a56a38" stroke-width="18" fill="none" stroke-linecap="round"/>
<path d="M260 530 C160 470 425 420 260 355 C135 300 470 250 290 180" stroke="#2f9d4b" stroke-width="20" fill="none" stroke-linecap="round"/><g transform="rotate(-25 215 460)"><path d="M 157 460 Q 215 433 273 460 Q 215 487 157 460 Z" fill="url(#leaf)" stroke="#0d6435" stroke-width="5"/><path d="M 174.4 460 Q 215 460 256.76 460" stroke="#e7ffd0" stroke-width="4" opacity=".62" fill="none"/></g><g transform="rotate(25 340 420)"><path d="M 282 420 Q 340 393 398 420 Q 340 447 282 420 Z" fill="url(#leaf)" stroke="#0d6435" stroke-width="5"/><path d="M 299.4 420 Q 340 420 381.76 420" stroke="#e7ffd0" stroke-width="4" opacity=".62" fill="none"/></g><g transform="rotate(-25 255 350)"><path d="M 197 350 Q 255 323 313 350 Q 255 377 197 350 Z" fill="url(#leaf)" stroke="#0d6435" stroke-width="5"/><path d="M 214.4 350 Q 255 350 296.76 350" stroke="#e7ffd0" stroke-width="4" opacity=".62" fill="none"/></g><g transform="rotate(25 390 310)"><path d="M 332 310 Q 390 283 448 310 Q 390 337 332 310 Z" fill="url(#leaf)" stroke="#0d6435" stroke-width="5"/><path d="M 349.4 310 Q 390 310 431.76 310" stroke="#e7ffd0" stroke-width="4" opacity=".62" fill="none"/></g><g transform="rotate(-25 235 250)"><path d="M 177 250 Q 235 223 293 250 Q 235 277 177 250 Z" fill="url(#leaf)" stroke="#0d6435" stroke-width="5"/><path d="M 194.4 250 Q 235 250 276.76 250" stroke="#e7ffd0" stroke-width="4" opacity=".62" fill="none"/></g><g transform="rotate(25 355 210)"><path d="M 297 210 Q 355 183 413 210 Q 355 237 297 210 Z" fill="url(#leaf)" stroke="#0d6435" stroke-width="5"/><path d="M 314.4 210 Q 355 210 396.76 210" stroke="#e7ffd0" stroke-width="4" opacity=".62" fill="none"/></g></g>
    </svg>