<svg xmlns="http://www.w3.org/2000/svg" viewBox="0 0 640 640" role="img" aria-label="pharmacy">

    <defs>
      <linearGradient id="bg" x1="0" y1="0" x2="0" y2="1"><stop offset="0" stop-color="#56dff4"/><stop offset=".34" stop-color="#168bc1"/><stop offset="1" stop-color="#04345f"/></linearGradient>
      <radialGradient id="glow" cx="50%" cy="18%" r="70%"><stop offset="0" stop-color="#efffff" stop-opacity=".85"/><stop offset=".35" stop-color="#57c887" stop-opacity=".25"/><stop offset="1" stop-color="#031d3e" stop-opacity="0"/></radialGradient>
      <linearGradient id="sand" x1="0" y1="0" x2="0" y2="1"><stop offset="0" stop-color="#ead89a"/><stop offset="1" stop-color="#9b7443"/></linearGradient>
      <linearGradient id="glass" x1="0" y1="0" x2="1" y2="1"><stop offset="0" stop-color="#ffffff" stop-opacity=".9"/><stop offset=".48" stop-color="#9deeff" stop-opacity=".22"/><stop offset="1" stop-color="#5ec7e7" stop-opacity=".38"/></linearGradient>
      <linearGradient id="gold" x1="0" y1="0" x2="1" y2="1"><stop offset="0" stop-color="#fff3a0"/><stop offset=".45" stop-color="#ffc33c"/><stop offset="1" stop-color="#a35d08"/></linearGradient>
    </defs>
    <rect x="0" y="0" width="640" height="640" fill="url(#bg)" rx="44"/>
    <rect x="0" y="0" width="640" height="640" fill="url(#glow)" rx="44"/>
    <circle cx="75" cy="90" r="10" fill="none" stroke="#d7fbff" stroke-width="2" opacity="0.62"/><circle cx="132" cy="166" r="6" fill="none" stroke="#d7fbff" stroke-width="2" opacity="0.62"/><circle cx="545" cy="95" r="8" fill="none" stroke="#d7fbff" stroke-width="2" opacity="0.62"/><circle cx="580" cy="180" r="14" fill="none" stroke="#d7fbff" stroke-width="2" opacity="0.62"/><circle cx="88" cy="290" r="7" fill="none" stroke="#d7fbff" stroke-width="2" opacity="0.62"/><circle cx="555" cy="340" r="9" fill="none" stroke="#d7fbff" stroke-width="2" opacity="0.62"/><circle cx="505" cy="235" r="5" fill="none" stroke="#d7fbff" stroke-width="2" opacity="0.62"/><circle cx="170" cy="75" r="5" fill="none" stroke="#d7fbff" stroke-width="2" opacity="0.62"/><circle cx="420" cy="110" r="6" fill="none" stroke="#d7fbff" stroke-width="2" opacity="0.62"/>
    <ellipse cx="320" cy="550" rx="270" ry="76" fill="#011a34" opacity="0.28"/>
    <path d="M40 546 Q150 498 260 535 Q380 565 600 520 L620 640 L20 640 Z" fill="url(#sand)" stroke="#6f552e" stroke-width="6" stroke-linejoin="round" stroke-linecap="round"/>
    <path d="M70 530 C55 500 58 470 72 438 C78 470 92 492 88 532" fill="#f574a6" stroke="#7f2e70" stroke-width="5" stroke-linejoin="round" stroke-linecap="round"/><path d="M82 510 C103 486 102 460 96 442 C118 466 120 493 108 525" fill="#ff9d67" stroke="#9b4f43" stroke-width="5" stroke-linejoin="round" stroke-linecap="round"/><path d="M560 530 C547 500 550 470 566 438 C572 469 586 490 582 530" fill="#ab77e8" stroke="#5f3c91" stroke-width="5" stroke-linejoin="round" stroke-linecap="round"/><path d="M548 513 C528 487 529 461 536 444 C514 466 511 493 522 526" fill="#67d9ce" stroke="#2f7e7b" stroke-width="5" stroke-linejoin="round" stroke-linecap="round"/>
    <circle cx="320" cy="317" r="244" fill="url(#glass)" stroke="#b6f6ff" stroke-width="5" opacity="0.23"/>
    <path d="M145 190 Q320 90 495 190" fill="none" stroke="#fff" stroke-width="5" stroke-linejoin="round" stroke-linecap="round" opacity="0.22"/>
    
<g><ellipse cx="320.0" cy="534" rx="176.8" ry="24" fill="#001d32" opacity="0.28"/><rect x="150" y="275" width="340" height="235" fill="#ecfff5" rx="18" stroke="#214967" stroke-width="7"/><polygon points="132,275 320.0,220 508,275" fill="#37a97c" stroke="#173953" stroke-width="7" stroke-linejoin="round"/><circle cx="320" cy="260" r="40" fill="url(#gold)" stroke="#70420c" stroke-width="5"/><circle cx="320" cy="260" r="32" fill="#28a56f" stroke="#fff0a2" stroke-width="3"/><rect x="309" y="232" width="22" height="56" fill="#fff" rx="5"/><rect x="292" y="249" width="56" height="22" fill="#fff" rx="5"/><rect x="198" y="327" width="58" height="48" fill="#8ce9ff" rx="8" stroke="#174c78" stroke-width="5"/><line x1="227.0" y1="331" x2="227.0" y2="371" stroke="#fff" stroke-width="3" stroke-linecap="round"/><line x1="202" y1="351.0" x2="252" y2="351.0" stroke="#fff" stroke-width="3" stroke-linecap="round"/><rect x="291" y="327" width="58" height="48" fill="#8ce9ff" rx="8" stroke="#174c78" stroke-width="5"/><line x1="320.0" y1="331" x2="320.0" y2="371" stroke="#fff" stroke-width="3" stroke-linecap="round"/><line x1="295" y1="351.0" x2="345" y2="351.0" stroke="#fff" stroke-width="3" stroke-linecap="round"/><rect x="384" y="327" width="58" height="48" fill="#8ce9ff" rx="8" stroke="#174c78" stroke-width="5"/><line x1="413.0" y1="331" x2="413.0" y2="371" stroke="#fff" stroke-width="3" stroke-linecap="round"/><line x1="388" y1="351.0" x2="438" y2="351.0" stroke="#fff" stroke-width="3" stroke-linecap="round"/><rect x="198" y="401" width="58" height="48" fill="#8ce9ff" rx="8" stroke="#174c78" stroke-width="5"/><line x1="227.0" y1="405" x2="227.0" y2="445" stroke="#fff" stroke-width="3" stroke-linecap="round"/><line x1="202" y1="425.0" x2="252" y2="425.0" stroke="#fff" stroke-width="3" stroke-linecap="round"/><rect x="291" y="401" width="58" height="48" fill="#8ce9ff" rx="8" stroke="#174c78" stroke-width="5"/><line x1="320.0" y1="405" x2="320.0" y2="445" stroke="#fff" stroke-width="3" stroke-linecap="round"/><line x1="295" y1="425.0" x2="345" y2="425.0" stroke="#fff" stroke-width="3" stroke-linecap="round"/><rect x="384" y="401" width="58" height="48" fill="#8ce9ff" rx="8" stroke="#174c78" stroke-width="5"/><line x1="413.0" y1="405" x2="413.0" y2="445" stroke="#fff" stroke-width="3" stroke-linecap="round"/><line x1="388" y1="425.0" x2="438" y2="425.0" stroke="#fff" stroke-width="3" stroke-linecap="round"/><rect x="286.0" y="406" width="68" height="104" fill="#347c63" rx="12" stroke="#4f2b21" stroke-width="6"/><circle cx="341.0" cy="458.0" r="5" fill="#ffd45b"/><rect x="175" y="338" width="130" height="110" fill="#dffaff" rx="12" stroke="#3b7b75" stroke-width="5"/><rect x="210" y="365" width="55" height="65" fill="#fff" rx="8" stroke="#2f6a70" stroke-width="4"/><rect x="222" y="350" width="31" height="18" fill="#2aa86d" rx="4"/><circle cx="237" cy="397" r="13" fill="#e34c66"/><circle cx="375" cy="390" r="18" fill="#f0d65b" stroke="#855d18" stroke-width="3"/><circle cx="410" cy="410" r="18" fill="#67c7e8" stroke="#245777" stroke-width="3"/><rect x="385" y="365" width="46" height="18" fill="#f6f6f6" rx="9" stroke="#b3b3b3" stroke-width="2"/></g>
</svg>