<svg xmlns="http://www.w3.org/2000/svg" viewBox="0 0 640 640" role="img" aria-label="cinema">

    <defs>
      <linearGradient id="bg" x1="0" y1="0" x2="0" y2="1"><stop offset="0" stop-color="#56dff4"/><stop offset=".34" stop-color="#168bc1"/><stop offset="1" stop-color="#04345f"/></linearGradient>
      <radialGradient id="glow" cx="50%" cy="18%" r="70%"><stop offset="0" stop-color="#efffff" stop-opacity=".85"/><stop offset=".35" stop-color="#57c887" stop-opacity=".25"/><stop offset="1" stop-color="#031d3e" stop-opacity="0"/></radialGradient>
      <linearGradient id="sand" x1="0" y1="0" x2="0" y2="1"><stop offset="0" stop-color="#ead89a"/><stop offset="1" stop-color="#9b7443"/></linearGradient>
      <linearGradient id="glass" x1="0" y1="0" x2="1" y2="1"><stop offset="0" stop-color="#ffffff" stop-opacity=".9"/><stop offset=".48" stop-color="#9deeff" stop-opacity=".22"/><stop offset="1" stop-color="#5ec7e7" stop-opacity=".38"/></linearGradient>
      <linearGradient id="gold" x1="0" y1="0" x2="1" y2="1"><stop offset="0" stop-color="#fff3a0"/><stop offset=".45" stop-color="#ffc33c"/><stop offset="1" stop-color="#a35d08"/></linearGradient>
    </defs>
    <rect x="0" y="0" width="640" height="640" fill="url(#bg)" rx="44"/>
    <rect x="0" y="0" width="640" height="640" fill="url(#glow)" rx="44"/>
    <circle cx="75" cy="90" r="10" fill="none" stroke="#d7fbff" stroke-width="2" opacity="0.62"/><circle cx="132" cy="166" r="6" fill="none" stroke="#d7fbff" stroke-width="2" opacity="0.62"/><circle cx="545" cy="95" r="8" fill="none" stroke="#d7fbff" stroke-width="2" opacity="0.62"/><circle cx="580" cy="180" r="14" fill="none" stroke="#d7fbff" stroke-width="2" opacity="0.62"/><circle cx="88" cy="290" r="7" fill="none" stroke="#d7fbff" stroke-width="2" opacity="0.62"/><circle cx="555" cy="340" r="9" fill="none" stroke="#d7fbff" stroke-width="2" opacity="0.62"/><circle cx="505" cy="235" r="5" fill="none" stroke="#d7fbff" stroke-width="2" opacity="0.62"/><circle cx="170" cy="75" r="5" fill="none" stroke="#d7fbff" stroke-width="2" opacity="0.62"/><circle cx="420" cy="110" r="6" fill="none" stroke="#d7fbff" stroke-width="2" opacity="0.62"/>
    <ellipse cx="320" cy="550" rx="270" ry="76" fill="#011a34" opacity="0.28"/>
    <path d="M40 546 Q150 498 260 535 Q380 565 600 520 L620 640 L20 640 Z" fill="url(#sand)" stroke="#6f552e" stroke-width="6" stroke-linejoin="round" stroke-linecap="round"/>
    <path d="M70 530 C55 500 58 470 72 438 C78 470 92 492 88 532" fill="#f574a6" stroke="#7f2e70" stroke-width="5" stroke-linejoin="round" stroke-linecap="round"/><path d="M82 510 C103 486 102 460 96 442 C118 466 120 493 108 525" fill="#ff9d67" stroke="#9b4f43" stroke-width="5" stroke-linejoin="round" stroke-linecap="round"/><path d="M560 530 C547 500 550 470 566 438 C572 469 586 490 582 530" fill="#ab77e8" stroke="#5f3c91" stroke-width="5" stroke-linejoin="round" stroke-linecap="round"/><path d="M548 513 C528 487 529 461 536 444 C514 466 511 493 522 526" fill="#67d9ce" stroke="#2f7e7b" stroke-width="5" stroke-linejoin="round" stroke-linecap="round"/>
    <circle cx="320" cy="317" r="244" fill="url(#glass)" stroke="#b6f6ff" stroke-width="5" opacity="0.23"/>
    <path d="M145 190 Q320 90 495 190" fill="none" stroke="#fff" stroke-width="5" stroke-linejoin="round" stroke-linecap="round" opacity="0.22"/>
    
<g><rect x="125" y="225" width="390" height="285" fill="#3d467e" rx="20" stroke="#20294f" stroke-width="7"/><path d="M105 275 L535 275 L505 205 L135 205 Z" fill="#d84d63" stroke="#7b2638" stroke-width="7" stroke-linejoin="round" stroke-linecap="round"/><rect x="170" y="300" width="300" height="105" fill="#17223f" rx="10" stroke="#f5c95d" stroke-width="6"/><circle cx="320" cy="352" r="46" fill="url(#gold)" stroke="#70420c" stroke-width="5"/><circle cx="320" cy="352" r="38" fill="#232d55" stroke="#fff0a2" stroke-width="3"/><circle cx="320" cy="352" r="26" fill="#fff" stroke="#173953" stroke-width="3"/><circle cx="310" cy="342" r="6" fill="#232d55"/><circle cx="330" cy="342" r="6" fill="#232d55"/><circle cx="310" cy="362" r="6" fill="#232d55"/><circle cx="330" cy="362" r="6" fill="#232d55"/><circle cx="320" cy="352" r="4" fill="#232d55"/><circle cx="150" cy="220" r="6" fill="#ffe36b" stroke="#8a5c10" stroke-width="2"/><circle cx="178" cy="220" r="6" fill="#ffe36b" stroke="#8a5c10" stroke-width="2"/><circle cx="206" cy="220" r="6" fill="#ffe36b" stroke="#8a5c10" stroke-width="2"/><circle cx="234" cy="220" r="6" fill="#ffe36b" stroke="#8a5c10" stroke-width="2"/><circle cx="262" cy="220" r="6" fill="#ffe36b" stroke="#8a5c10" stroke-width="2"/><circle cx="290" cy="220" r="6" fill="#ffe36b" stroke="#8a5c10" stroke-width="2"/><circle cx="318" cy="220" r="6" fill="#ffe36b" stroke="#8a5c10" stroke-width="2"/><circle cx="346" cy="220" r="6" fill="#ffe36b" stroke="#8a5c10" stroke-width="2"/><circle cx="374" cy="220" r="6" fill="#ffe36b" stroke="#8a5c10" stroke-width="2"/><circle cx="402" cy="220" r="6" fill="#ffe36b" stroke="#8a5c10" stroke-width="2"/><circle cx="430" cy="220" r="6" fill="#ffe36b" stroke="#8a5c10" stroke-width="2"/><circle cx="458" cy="220" r="6" fill="#ffe36b" stroke="#8a5c10" stroke-width="2"/><circle cx="486" cy="220" r="6" fill="#ffe36b" stroke="#8a5c10" stroke-width="2"/><path d="M450 430 L510 430 L498 505 L462 505 Z" fill="#f4f0db" stroke="#9b452d" stroke-width="4" stroke-linejoin="round" stroke-linecap="round"/><rect x="458" y="434" width="8" height="66" fill="#e5534e"/><rect x="470" y="434" width="8" height="66" fill="#fff"/><rect x="482" y="434" width="8" height="66" fill="#e5534e"/><rect x="494" y="434" width="8" height="66" fill="#fff"/><circle cx="462" cy="425" r="13" fill="#fff2a8" stroke="#b78634" stroke-width="3"/><circle cx="477" cy="415" r="13" fill="#fff2a8" stroke="#b78634" stroke-width="3"/><circle cx="493" cy="425" r="13" fill="#fff2a8" stroke="#b78634" stroke-width="3"/><circle cx="505" cy="413" r="13" fill="#fff2a8" stroke="#b78634" stroke-width="3"/><circle cx="486" cy="405" r="13" fill="#fff2a8" stroke="#b78634" stroke-width="3"/></g>
</svg>