<svg xmlns="http://www.w3.org/2000/svg" viewBox="0 0 640 640" role="img" aria-label="bakery">

    <defs>
      <linearGradient id="bg" x1="0" y1="0" x2="0" y2="1"><stop offset="0" stop-color="#56dff4"/><stop offset=".34" stop-color="#168bc1"/><stop offset="1" stop-color="#04345f"/></linearGradient>
      <radialGradient id="glow" cx="50%" cy="18%" r="70%"><stop offset="0" stop-color="#efffff" stop-opacity=".85"/><stop offset=".35" stop-color="#57c887" stop-opacity=".25"/><stop offset="1" stop-color="#031d3e" stop-opacity="0"/></radialGradient>
      <linearGradient id="sand" x1="0" y1="0" x2="0" y2="1"><stop offset="0" stop-color="#ead89a"/><stop offset="1" stop-color="#9b7443"/></linearGradient>
      <linearGradient id="glass" x1="0" y1="0" x2="1" y2="1"><stop offset="0" stop-color="#ffffff" stop-opacity=".9"/><stop offset=".48" stop-color="#9deeff" stop-opacity=".22"/><stop offset="1" stop-color="#5ec7e7" stop-opacity=".38"/></linearGradient>
      <linearGradient id="gold" x1="0" y1="0" x2="1" y2="1"><stop offset="0" stop-color="#fff3a0"/><stop offset=".45" stop-color="#ffc33c"/><stop offset="1" stop-color="#a35d08"/></linearGradient>
    </defs>
    <rect x="0" y="0" width="640" height="640" fill="url(#bg)" rx="44"/>
    <rect x="0" y="0" width="640" height="640" fill="url(#glow)" rx="44"/>
    <circle cx="75" cy="90" r="10" fill="none" stroke="#d7fbff" stroke-width="2" opacity="0.62"/><circle cx="132" cy="166" r="6" fill="none" stroke="#d7fbff" stroke-width="2" opacity="0.62"/><circle cx="545" cy="95" r="8" fill="none" stroke="#d7fbff" stroke-width="2" opacity="0.62"/><circle cx="580" cy="180" r="14" fill="none" stroke="#d7fbff" stroke-width="2" opacity="0.62"/><circle cx="88" cy="290" r="7" fill="none" stroke="#d7fbff" stroke-width="2" opacity="0.62"/><circle cx="555" cy="340" r="9" fill="none" stroke="#d7fbff" stroke-width="2" opacity="0.62"/><circle cx="505" cy="235" r="5" fill="none" stroke="#d7fbff" stroke-width="2" opacity="0.62"/><circle cx="170" cy="75" r="5" fill="none" stroke="#d7fbff" stroke-width="2" opacity="0.62"/><circle cx="420" cy="110" r="6" fill="none" stroke="#d7fbff" stroke-width="2" opacity="0.62"/>
    <ellipse cx="320" cy="550" rx="270" ry="76" fill="#011a34" opacity="0.28"/>
    <path d="M40 546 Q150 498 260 535 Q380 565 600 520 L620 640 L20 640 Z" fill="url(#sand)" stroke="#6f552e" stroke-width="6" stroke-linejoin="round" stroke-linecap="round"/>
    <path d="M70 530 C55 500 58 470 72 438 C78 470 92 492 88 532" fill="#f574a6" stroke="#7f2e70" stroke-width="5" stroke-linejoin="round" stroke-linecap="round"/><path d="M82 510 C103 486 102 460 96 442 C118 466 120 493 108 525" fill="#ff9d67" stroke="#9b4f43" stroke-width="5" stroke-linejoin="round" stroke-linecap="round"/><path d="M560 530 C547 500 550 470 566 438 C572 469 586 490 582 530" fill="#ab77e8" stroke="#5f3c91" stroke-width="5" stroke-linejoin="round" stroke-linecap="round"/><path d="M548 513 C528 487 529 461 536 444 C514 466 511 493 522 526" fill="#67d9ce" stroke="#2f7e7b" stroke-width="5" stroke-linejoin="round" stroke-linecap="round"/>
    <circle cx="320" cy="317" r="244" fill="url(#glass)" stroke="#b6f6ff" stroke-width="5" opacity="0.23"/>
    <path d="M145 190 Q320 90 495 190" fill="none" stroke="#fff" stroke-width="5" stroke-linejoin="round" stroke-linecap="round" opacity="0.22"/>
    
<g><rect x="145" y="250" width="350" height="260" fill="#f5c98e" rx="18" stroke="#6d4a2d" stroke-width="7"/><path d="M130 295 L510 295 L480 225 L160 225 Z" fill="#f2a25b" stroke="#8a4a2d" stroke-width="7" stroke-linejoin="round" stroke-linecap="round"/><rect x="155" y="225" width="21" height="70" fill="#e86e5d"/><rect x="197" y="225" width="21" height="70" fill="#fff1d0"/><rect x="239" y="225" width="21" height="70" fill="#e86e5d"/><rect x="281" y="225" width="21" height="70" fill="#fff1d0"/><rect x="323" y="225" width="21" height="70" fill="#e86e5d"/><rect x="365" y="225" width="21" height="70" fill="#fff1d0"/><rect x="407" y="225" width="21" height="70" fill="#e86e5d"/><rect x="449" y="225" width="21" height="70" fill="#fff1d0"/><rect x="185" y="325" width="200" height="120" fill="#b9ebf6" rx="12" stroke="#35677b" stroke-width="5"/><path d="M210 405 Q205 365 240 350 Q275 365 270 405 Z" fill="#d9933d" stroke="#8d5724" stroke-width="4" stroke-linejoin="round" stroke-linecap="round"/><path d="M285 405 Q280 375 310 360 Q340 372 338 405 Z" fill="#efc164" stroke="#9c6629" stroke-width="4" stroke-linejoin="round" stroke-linecap="round"/><path d="M350 405 Q348 375 370 360 Q392 375 390 405 Z" fill="#d9833b" stroke="#8c4d24" stroke-width="4" stroke-linejoin="round" stroke-linecap="round"/><circle cx="430" cy="365" r="33" fill="url(#gold)" stroke="#70420c" stroke-width="5"/><circle cx="430" cy="365" r="25" fill="#9a5831" stroke="#fff0a2" stroke-width="3"/><path d="M399 385 Q393 355 411 342 Q430 325 449 342 Q467 355 461 385 Z" fill="#fff" stroke="#c57a2a" stroke-width="3" stroke-linejoin="round" stroke-linecap="round"/><path d="M412 347 Q420 358 414 369 M430 341 Q438 355 431 367 M448 348 Q455 360 447 372" fill="none" stroke="#c57a2a" stroke-width="4" stroke-linejoin="round" stroke-linecap="round"/><rect x="405" y="400" width="60" height="110" fill="#7f4f31" rx="12" stroke="#4f2b21" stroke-width="6"/><circle cx="452" cy="455.0" r="5" fill="#ffd45b"/></g>
</svg>